<svg height="512pt" viewBox="0 -40 512.00016 512" width="512pt" xmlns="http://www.w3.org/2000/svg"><path d="m397.742188 0h-364.566407c-18.253906 0-33.175781 14.925781-33.175781 33.179688v364.640624c0 18.253907 14.921875 33.179688 33.175781 33.179688h364.566407c18.253906 0 33.175781-14.925781 33.175781-33.179688v-364.640624c0-18.253907-14.921875-33.179688-33.175781-33.179688zm0 0" fill="#e6e6e6" fill-rule="evenodd"/><path d="m79.109375 122.816406c-21.054687 0-38.1875-17.148437-38.1875-38.226562 0-21.066406 17.132813-38.199219 38.1875-38.199219 21.074219 0 38.21875 17.132813 38.21875 38.199219 0 21.078125-17.144531 38.226562-38.21875 38.226562zm0-60.839844c-12.46875 0-22.613281 10.144532-22.613281 22.613282 0 12.484375 10.144531 22.640625 22.613281 22.640625 12.488281 0 22.644531-10.15625 22.644531-22.640625 0-12.46875-10.15625-22.613282-22.644531-22.613282zm0 0" fill="#64b0d9"/><path d="m226.476562 215.5 19.980469-19.984375c3.042969-3.042969 3.046875-7.980469.003907-11.023437-3.039063-3.046876-7.96875-3.046876-11.011719-.003907l-19.988281 19.992188-19.992188-19.992188c-3.042969-3.042969-7.972656-3.042969-11.011719.003907-3.042969 3.042968-3.039062 7.980468.003907 11.023437l19.980468 19.984375-19.980468 19.984375c-3.042969 3.042969-3.046876 7.980469-.003907 11.023437 1.519531 1.523438 3.515625 2.285157 5.507813 2.285157 1.992187 0 3.984375-.761719 5.503906-2.28125l19.992188-19.992188 19.988281 19.992188c1.523437 1.519531 3.515625 2.28125 5.503906 2.28125 1.996094 0 3.988281-.761719 5.511719-2.285157 3.039062-3.042968 3.039062-7.980468-.003906-11.023437zm0 0" fill="#d92525"/><path d="m78.117188 253.699219c-21.070313 0-38.214844-17.136719-38.214844-38.199219 0-21.078125 17.144531-38.230469 38.214844-38.230469 21.058593 0 38.1875 17.152344 38.1875 38.230469 0 21.0625-17.128907 38.199219-38.1875 38.199219zm0-60.839844c-12.484376 0-22.640626 10.15625-22.640626 22.640625 0 12.46875 10.15625 22.613281 22.640626 22.613281 12.46875 0 22.613281-10.144531 22.613281-22.613281 0-12.484375-10.144531-22.640625-22.613281-22.640625zm0 0" fill="#64b0d9"/><path d="m90.140625 347.566406 19.96875-19.972656c3.042969-3.042969 3.042969-7.976562.003906-11.019531-3.039062-3.046875-7.96875-3.046875-11.011719-.003907l-19.976562 19.976563-19.976562-19.976563c-3.039063-3.046874-7.972657-3.042968-11.011719.003907-3.039063 3.042969-3.039063 7.976562.003906 11.019531l19.96875 19.972656-19.96875 19.96875c-3.042969 3.046875-3.042969 7.980469-.003906 11.023438 1.519531 1.523437 3.515625 2.285156 5.507812 2.285156 1.992188 0 3.984375-.757812 5.503907-2.28125l19.976562-19.976562 19.976562 19.976562c1.519532 1.523438 3.511719 2.28125 5.503907 2.28125 1.992187 0 3.988281-.761719 5.507812-2.285156 3.039063-3.042969 3.039063-7.976563-.003906-11.023438zm0 0" fill="#d92525"/><path d="m400.546875 321.058594-6.628906 7.128906v69.632812c0 18.253907-14.921875 33.179688-33.175781 33.179688h37c18.253906 0 33.175781-14.925781 33.175781-33.179688v-148.875zm0 0" fill="#c2c7cc" fill-rule="evenodd"/><path d="m346.402344 122.816406c-21.070313 0-38.214844-17.148437-38.214844-38.226562 0-21.066406 17.144531-38.199219 38.214844-38.199219 21.058594 0 38.191406 17.132813 38.191406 38.199219 0 21.078125-17.132812 38.226562-38.191406 38.226562zm0-60.839844c-12.484375 0-22.640625 10.144532-22.640625 22.613282 0 12.484375 10.15625 22.640625 22.640625 22.640625 12.46875 0 22.613281-10.15625 22.613281-22.640625.003906-12.46875-10.144531-22.613282-22.613281-22.613282zm0 0" fill="#64b0d9"/><path d="m393.917969 33.179688v123.144531l37-87.886719v-35.257812c0-18.253907-14.921875-33.179688-33.175781-33.179688h-37c18.253906 0 33.175781 14.925781 33.175781 33.179688zm0 0" fill="#c2c7cc" fill-rule="evenodd"/><path d="m402.394531 141.960938h-113.414062v-105.1875c0-4.304688-3.484375-7.792969-7.785157-7.792969-4.300781 0-7.789062 3.488281-7.789062 7.792969v105.183593h-115.894531v-105.183593c0-4.304688-3.488281-7.792969-7.789063-7.792969-4.300781 0-7.785156 3.488281-7.785156 7.792969v105.183593h-105.171875c-4.300781 0-7.785156 3.488281-7.785156 7.796875 0 4.304688 3.484375 7.792969 7.785156 7.792969h105.171875v115.90625h-105.171875c-4.300781 0-7.785156 3.488281-7.785156 7.796875 0 4.304688 3.484375 7.792969 7.785156 7.792969h105.171875v105.183593c0 4.304688 3.484375 7.792969 7.785156 7.792969 4.300782 0 7.789063-3.488281 7.789063-7.792969v-105.183593h115.894531v105.183593c0 4.304688 3.488281 7.792969 7.789062 7.792969 4.300782 0 7.785157-3.488281 7.785157-7.792969v-105.183593h105.171875c4.300781 0 7.785156-3.492188 7.785156-7.796875 0-4.304688-3.484375-7.792969-7.785156-7.792969h-105.171875v-115.90625h113.414062c4.300781 0 7.785157-3.488281 7.785157-7.792969 0-4.308594-3.484376-7.792968-7.785157-7.792968zm-128.988281 131.492187h-115.894531v-115.90625h115.894531zm0 0" fill="#808080"/><g fill-rule="evenodd"><path d="m333.730469 339.109375-.933594 18.34375c-.613281 13.582031 13.84375 20.855469 24.355469 10.28125l12.527344-13.464844-12-21.148437zm0 0" fill="#808080"/><path d="m400.546875 321.058594-24.238281-27.222656h-40.300782l-2.277343 45.273437 35.949219 15.160156zm0 0" fill="#ffdda6"/><path d="m430.917969 68.433594-89.59375 212.816406-5.316407 12.585938 64.539063 27.222656 30.371094-72.113282 73.300781-173.996093v-.027344l-23.949219-30.320313-40.621093 3.125zm0 0" fill="#50d960"/><path d="m490.609375 17.027344c-17.757813-7.503906-38.402344.90625-45.878906 18.664062l-5.082031 12.035156 64.570312 27.195313 5.050781-12.007813c7.417969-17.582031-.757812-38.351562-18.660156-45.886718zm0 0" fill="#f78411"/><path d="m373.738281 309.757812 26.808594 11.300782 30.371094-72.113282 73.300781-173.996093v-.027344l-26.839844-11.304687v.027343l-73.300781 173.996094zm0 0" fill="#2bad3b"/><path d="m373.738281 309.757812-17.464843 41.503907 13.40625 3.007812 30.867187-33.210937zm0 0" fill="#fcc368"/><path d="m475.949219 14.3125c8.324219 9.113281 11.449219 22.257812 7.5625 34.40625-.289063.964844-.671875 1.929688-1.078125 2.894531l-5.054688 12.003907 26.839844 11.304687 5.050781-12.003906c7.417969-17.585938-.757812-38.351563-18.660156-45.886719-4.789063-2.019531-9.785156-2.894531-14.660156-2.71875zm0 0" fill="#f74311"/><path d="m356.273438 348.601562-12.527344 13.464844c-2.6875 2.71875-5.636719 4.238282-8.496094 4.820313 4.46875 6.777343 14.25 8.558593 21.902344.847656l12.527344-13.464844zm0 0" fill="#666"/></g></svg>